<svg xmlns="http://www.w3.org/2000/svg" width="192" height="192" viewBox="0 0 192 192" fill="none">
  <!-- Background circle with gradient -->
  <circle cx="96" cy="96" r="96" fill="url(#gradient)" />
  
  <!-- Pipeline flow design -->
  <g transform="translate(24, 48)">
    <!-- Node 1 -->
    <rect x="8" y="8" width="24" height="16" rx="4" fill="#87ceeb" stroke="#4682b4" stroke-width="2" />
    
    <!-- Connection line 1 -->
    <line x1="32" y1="16" x2="48" y2="16" stroke="#f38ba8" stroke-width="3" stroke-linecap="round" />
    
    <!-- Node 2 -->
    <rect x="48" y="8" width="24" height="16" rx="4" fill="#dda0dd" stroke="#9370db" stroke-width="2" />
    
    <!-- Connection line 2 -->
    <line x1="72" y1="16" x2="88" y2="16" stroke="#f38ba8" stroke-width="3" stroke-linecap="round" />
    
    <!-- Node 3 -->
    <rect x="88" y="8" width="24" height="16" rx="4" fill="#98fb98" stroke="#32cd32" stroke-width="2" />
    
    <!-- Branch connection -->
    <line x1="60" y1="24" x2="60" y2="40" stroke="#f38ba8" stroke-width="3" stroke-linecap="round" />
    
    <!-- Node 4 (branched) -->
    <rect x="48" y="40" width="24" height="16" rx="4" fill="#ffb74d" stroke="#ff8c00" stroke-width="2" />
    
    <!-- Node 5 -->
    <rect x="8" y="72" width="24" height="16" rx="4" fill="#ffb6c1" stroke="#ff69b4" stroke-width="2" />
    
    <!-- Connection line 3 -->
    <line x1="32" y1="80" x2="48" y2="80" stroke="#f38ba8" stroke-width="3" stroke-linecap="round" />
    
    <!-- Node 6 -->
    <rect x="48" y="72" width="24" height="16" rx="4" fill="#afeeee" stroke="#20b2aa" stroke-width="2" />
    
    <!-- Multiple connections -->
    <line x1="72" y1="80" x2="88" y2="80" stroke="#f38ba8" stroke-width="3" stroke-linecap="round" />
    <line x1="60" y1="64" x2="60" y2="72" stroke="#f38ba8" stroke-width="3" stroke-linecap="round" />
    
    <!-- Final node -->
    <rect x="88" y="72" width="24" height="16" rx="4" fill="#f0e68c" stroke="#daa520" stroke-width="2" />
    
    <!-- Flow arrows -->
    <polygon points="40,14 44,16 40,18" fill="#f38ba8" />
    <polygon points="80,14 84,16 80,18" fill="#f38ba8" />
    <polygon points="40,78 44,80 40,82" fill="#f38ba8" />
    <polygon points="80,78 84,80 80,82" fill="#f38ba8" />
  </g>
  
  <!-- Gradient definition -->
  <defs>
    <linearGradient id="gradient" x1="0%" y1="0%" x2="100%" y2="100%">
      <stop offset="0%" style="stop-color:rgba(26, 26, 46, 0.95);stop-opacity:1" />
      <stop offset="50%" style="stop-color:rgba(40, 45, 80, 0.85);stop-opacity:1" />
      <stop offset="100%" style="stop-color:rgba(20, 25, 40, 0.95);stop-opacity:1" />
    </linearGradient>
  </defs>
</svg>